ffmpeg started on 2025-07-16 at 17:29:54
Report written to "D:\Convert\FFMetrics\reports\ssim_report-6.txt"
Log level: 32
Command line:
ffmpeg -hide_banner -nostdin -i "G:\\\xc0\xed\xe8\xec\xe5\\Shiza\\\xcb\xe5\xe3\xe5\xed\xe4\xe0 \xee \xc3\xf0\xe0\xed\xea\xf0\xe5\xf1\xf2\xe5\\[SHIZA Project] Grancrest Senki TV [20] [nDrOiDze & Lizaveta]_HEVC.mkv" -i "G:\\\xc0\xed\xe8\xec\xe5\\Shiza\\\xcb\xe5\xe3\xe5\xed\xe4\xe0 \xee \xc3\xf0\xe0\xed\xea\xf0\xe5\xf1\xf2\xe5\\[SHIZA Project] Grancrest Senki TV [20] [nDrOiDze & Lizaveta].mkv" -lavfi "[0:v]settb=AVTB,setpts=PTS-STARTPTS,format=pix_fmts=yuv420p10,fps=24000/1001,scale=1280:720:flags=bicubic[main];[1:v]settb=AVTB,setpts=PTS-STARTPTS,format=pix_fmts=yuv420p,fps=24000/1001,scale=1280:720:flags=bicubic[ref];[main][ref]ssim=eof_action=endall:stats_file='D\\:/Convert/FFMetrics/logs/ssim_logfile-6.txt'" -f null -
Input #0, matroska,webm, from 'G:\Аниме\Shiza\Легенда о Гранкресте\[SHIZA Project] Grancrest Senki TV [20] [nDrOiDze & Lizaveta]_HEVC.mkv':
  Metadata:
    ENCODER         : Lavf61.7.100
  Duration: 00:23:41.18, start: -0.021000, bitrate: 979 kb/s
  Stream #0:0(jpn): Video: hevc (Main 10), yuv420p10le(tv, bt709, progressive), 1280x720 [SAR 1:1 DAR 16:9], 23.81 fps, 23.81 tbr, 1k tbn (default)
      Metadata:
        title           : [SHIZA Project] Grancrest Senki TV [WEBRip]
        ENCODER         : Lavc61.19.100 libx265
        BPS             : 780909
        DURATION        : 00:23:40.146000000
        NUMBER_OF_FRAMES: 34050
        NUMBER_OF_BYTES : 138625700
        _STATISTICS_WRITING_APP: mkvpropedit v66.0.0 ('Josie') 64-bit
        _STATISTICS_WRITING_DATE_UTC: 2025-07-16 11:15:12
        _STATISTICS_TAGS: BPS DURATION NUMBER_OF_FRAMES NUMBER_OF_BYTES
  Stream #0:1(rus): Audio: aac (LC), 48000 Hz, stereo, fltp (default)
      Metadata:
        title           : nDrOiDze & Lizaveta
        ENCODER         : Lavc61.19.100 aac
        BPS             : 194923
        DURATION        : 00:23:41.162000000
        NUMBER_OF_FRAMES: 66618
        NUMBER_OF_BYTES : 34627276
        _STATISTICS_WRITING_APP: mkvpropedit v66.0.0 ('Josie') 64-bit
        _STATISTICS_WRITING_DATE_UTC: 2025-07-16 11:15:12
        _STATISTICS_TAGS: BPS DURATION NUMBER_OF_FRAMES NUMBER_OF_BYTES
Input #1, matroska,webm, from 'G:\Аниме\Shiza\Легенда о Гранкресте\[SHIZA Project] Grancrest Senki TV [20] [nDrOiDze & Lizaveta].mkv':
  Metadata:
    encoder         : libebml v1.3.4 + libmatroska v1.4.5
    creation_time   : 2018-06-02T20:01:06.000000Z
  Duration: 00:23:41.16, start: 0.000000, bitrate: 1967 kb/s
  Stream #1:0(jpn): Video: h264 (High), yuv420p(progressive), 1280x720 [SAR 1:1 DAR 16:9], 23.81 fps, 23.81 tbr, 1k tbn (default)
      Metadata:
        title           : [SHIZA Project] Grancrest Senki TV [WEBRip]
        BPS             : 1770106
        BPS-eng         : 1770106
        DURATION        : 00:23:40.128000000
        DURATION-eng    : 00:23:40.128000000
        NUMBER_OF_FRAMES: 34050
        NUMBER_OF_FRAMES-eng: 34050
        NUMBER_OF_BYTES : 314222264
        NUMBER_OF_BYTES-eng: 314222264
        _STATISTICS_WRITING_APP: mkvmerge v10.0.0 ('To Drown In You') 64bit
        _STATISTICS_WRITING_APP-eng: mkvmerge v10.0.0 ('To Drown In You') 64bit
        _STATISTICS_WRITING_DATE_UTC: 2018-06-02 20:01:06
        _STATISTICS_WRITING_DATE_UTC-eng: 2018-06-02 20:01:06
        _STATISTICS_TAGS: BPS DURATION NUMBER_OF_FRAMES NUMBER_OF_BYTES
        _STATISTICS_TAGS-eng: BPS DURATION NUMBER_OF_FRAMES NUMBER_OF_BYTES
  Stream #1:1(rus): Audio: aac (LC), 48000 Hz, stereo, fltp (default)
      Metadata:
        title           : nDrOiDze & Lizaveta
        BPS             : 194713
        BPS-eng         : 194713
        DURATION        : 00:23:41.162000000
        DURATION-eng    : 00:23:41.162000000
        NUMBER_OF_FRAMES: 66617
        NUMBER_OF_FRAMES-eng: 66617
        NUMBER_OF_BYTES : 34589914
        NUMBER_OF_BYTES-eng: 34589914
        _STATISTICS_WRITING_APP: mkvmerge v10.0.0 ('To Drown In You') 64bit
        _STATISTICS_WRITING_APP-eng: mkvmerge v10.0.0 ('To Drown In You') 64bit
        _STATISTICS_WRITING_DATE_UTC: 2018-06-02 20:01:06
        _STATISTICS_WRITING_DATE_UTC-eng: 2018-06-02 20:01:06
        _STATISTICS_TAGS: BPS DURATION NUMBER_OF_FRAMES NUMBER_OF_BYTES
        _STATISTICS_TAGS-eng: BPS DURATION NUMBER_OF_FRAMES NUMBER_OF_BYTES
  Stream #1:2: Attachment: ttf
      Metadata:
        filename        : OpenSans-Semibold.ttf
        mimetype        : application/x-truetype-font
Stream mapping:
  Stream #0:0 (hevc) -> settb:default
  Stream #1:0 (h264) -> settb:default
  ssim:default -> Stream #0:0 (wrapped_avframe)
  Stream #0:1 -> #0:1 (aac (native) -> pcm_s16le (native))
[swscaler @ 000001fca5c24040] No accelerated colorspace conversion found from yuv420p to bgr48le.
[swscaler @ 000001fca5d38680] No accelerated colorspace conversion found from yuv420p to bgr48le.
[swscaler @ 000001fca5ec7a40] No accelerated colorspace conversion found from yuv420p to bgr48le.
[swscaler @ 000001fca5fbd380] No accelerated colorspace conversion found from yuv420p to bgr48le.
[swscaler @ 000001fca607e700] No accelerated colorspace conversion found from yuv420p to bgr48le.
[swscaler @ 000001fca6126d80] No accelerated colorspace conversion found from yuv420p to bgr48le.
[swscaler @ 000001fca6184040] No accelerated colorspace conversion found from yuv420p to bgr48le.
[swscaler @ 000001fca61ed740] No accelerated colorspace conversion found from yuv420p to bgr48le.
[swscaler @ 000001fca624c040] No accelerated colorspace conversion found from yuv420p to bgr48le.
[swscaler @ 000001fca62d7040] No accelerated colorspace conversion found from yuv420p to bgr48le.
[swscaler @ 000001fca6340040] No accelerated colorspace conversion found from yuv420p to bgr48le.
[swscaler @ 000001fca639b040] No accelerated colorspace conversion found from yuv420p to bgr48le.
[swscaler @ 000001fca6405040] No accelerated colorspace conversion found from yuv420p to bgr48le.
[swscaler @ 000001fca6480040] No accelerated colorspace conversion found from yuv420p to bgr48le.
[swscaler @ 000001fca64eb040] No accelerated colorspace conversion found from yuv420p to bgr48le.
[swscaler @ 000001fca656c040] No accelerated colorspace conversion found from yuv420p to bgr48le.
Output #0, null, to 'pipe:':
  Metadata:
    encoder         : Lavf61.7.100
  Stream #0:0: Video: wrapped_avframe, yuv420p10le(tv, bt709, progressive), 1280x720 [SAR 1:1 DAR 16:9], q=2-31, 200 kb/s, 23.98 fps, 23.98 tbn
      Metadata:
        encoder         : Lavc61.19.100 wrapped_avframe
  Stream #0:1(rus): Audio: pcm_s16le, 48000 Hz, stereo, s16, 1536 kb/s (default)
      Metadata:
        title           : nDrOiDze & Lizaveta
        _STATISTICS_TAGS: BPS DURATION NUMBER_OF_FRAMES NUMBER_OF_BYTES
        BPS             : 194923
        DURATION        : 00:23:41.162000000
        NUMBER_OF_FRAMES: 66618
        NUMBER_OF_BYTES : 34627276
        _STATISTICS_WRITING_APP: mkvpropedit v66.0.0 ('Josie') 64-bit
        _STATISTICS_WRITING_DATE_UTC: 2025-07-16 11:15:12
        encoder         : Lavc61.19.100 pcm_s16le
frame=   66 fps=0.0 q=-0.0 size=N/A time=00:00:02.75 bitrate=N/A speed=5.39x    frame=  169 fps=164 q=-0.0 size=N/A time=00:00:07.04 bitrate=N/A speed=6.83x    frame=  250 fps=161 q=-0.0 size=N/A time=00:00:10.42 bitrate=N/A speed=6.71x    frame=  340 fps=165 q=-0.0 size=N/A time=00:00:14.18 bitrate=N/A speed=6.88x    frame=  435 fps=168 q=-0.0 size=N/A time=00:00:18.14 bitrate=N/A speed=7.02x    frame=  521 fps=169 q=-0.0 size=N/A time=00:00:21.73 bitrate=N/A speed=7.03x    frame=  617 fps=171 q=-0.0 size=N/A time=00:00:25.73 bitrate=N/A speed=7.13x    frame=  696 fps=169 q=-0.0 size=N/A time=00:00:29.02 bitrate=N/A speed=7.05x    frame=  797 fps=172 q=-0.0 size=N/A time=00:00:33.24 bitrate=N/A speed=7.16x    frame=  890 fps=172 q=-0.0 size=N/A time=00:00:37.12 bitrate=N/A speed=7.19x    frame=  978 fps=172 q=-0.0 size=N/A time=00:00:40.79 bitrate=N/A speed=7.19x    frame= 1066 fps=172 q=-0.0 size=N/A time=00:00:44.46 bitrate=N/A speed=7.18x    frame= 1146 fps=171 q=-0.0 size=N/A time=00:00:47.79 bitrate=N/A speed=7.12x    frame= 1232 fps=170 q=-0.0 size=N/A time=00:00:51.38 bitrate=N/A speed=7.11x    frame= 1309 fps=169 q=-0.0 size=N/A time=00:00:54.59 bitrate=N/A speed=7.06x    frame= 1407 fps=170 q=-0.0 size=N/A time=00:00:58.68 bitrate=N/A speed=7.11x    frame= 1490 fps=170 q=-0.0 size=N/A time=00:01:02.14 bitrate=N/A speed=7.09x    frame= 1568 fps=169 q=-0.0 size=N/A time=00:01:05.39 bitrate=N/A speed=7.04x    frame= 1671 fps=171 q=-0.0 size=N/A time=00:01:09.69 bitrate=N/A speed=7.11x    frame= 1764 fps=171 q=-0.0 size=N/A time=00:01:13.57 bitrate=N/A speed=7.14x    frame= 1857 fps=171 q=-0.0 size=N/A time=00:01:17.45 bitrate=N/A speed=7.15x    frame= 1948 fps=172 q=-0.0 size=N/A time=00:01:21.24 bitrate=N/A speed=7.16x    frame= 2040 fps=172 q=-0.0 size=N/A time=00:01:25.08 bitrate=N/A speed=7.18x    frame= 2134 fps=173 q=-0.0 size=N/A time=00:01:29.00 bitrate=N/A speed= 7.2x    frame= 2220 fps=172 q=-0.0 size=N/A time=00:01:32.59 bitrate=N/A speed=7.18x    frame= 2308 fps=172 q=-0.0 size=N/A time=00:01:36.26 bitrate=N/A speed=7.18x    frame= 2394 fps=172 q=-0.0 size=N/A time=00:01:39.84 bitrate=N/A speed=7.17x    frame= 2484 fps=172 q=-0.0 size=N/A time=00:01:43.60 bitrate=N/A speed=7.18x    frame= 2585 fps=173 q=-0.0 size=N/A time=00:01:47.81 bitrate=N/A speed=7.21x    frame= 2666 fps=172 q=-0.0 size=N/A time=00:01:51.19 bitrate=N/A speed=7.19x    frame= 2760 fps=173 q=-0.0 size=N/A time=00:01:55.11 bitrate=N/A speed= 7.2x    frame= 2846 fps=172 q=-0.0 size=N/A time=00:01:58.70 bitrate=N/A speed=7.19x    frame= 2935 fps=172 q=-0.0 size=N/A time=00:02:02.41 bitrate=N/A speed=7.19x    frame= 3018 fps=172 q=-0.0 size=N/A time=00:02:05.87 bitrate=N/A speed=7.18x    frame= 3104 fps=172 q=-0.0 size=N/A time=00:02:09.46 bitrate=N/A speed=7.17x    frame= 3187 fps=172 q=-0.0 size=N/A time=00:02:12.92 bitrate=N/A speed=7.16x    frame= 3278 fps=172 q=-0.0 size=N/A time=00:02:16.71 bitrate=N/A speed=7.17x    frame= 3366 fps=172 q=-0.0 size=N/A time=00:02:20.39 bitrate=N/A speed=7.16x    frame= 3449 fps=172 q=-0.0 size=N/A time=00:02:23.85 bitrate=N/A speed=7.15x    frame= 3545 fps=172 q=-0.0 size=N/A time=00:02:27.85 bitrate=N/A speed=7.17x    frame= 3624 fps=171 q=-0.0 size=N/A time=00:02:31.15 bitrate=N/A speed=7.15x    frame= 3724 fps=172 q=-0.0 size=N/A time=00:02:35.32 bitrate=N/A speed=7.17x    frame= 3808 fps=172 q=-0.0 size=N/A time=00:02:38.82 bitrate=N/A speed=7.16x    frame= 3913 fps=172 q=-0.0 size=N/A time=00:02:43.20 bitrate=N/A speed=7.19x    frame= 4000 fps=172 q=-0.0 size=N/A time=00:02:46.83 bitrate=N/A speed=7.19x    frame= 4101 fps=173 q=-0.0 size=N/A time=00:02:51.04 bitrate=N/A speed=7.21x    frame= 4203 fps=173 q=-0.0 size=N/A time=00:02:55.30 bitrate=N/A speed=7.23x    frame= 4294 fps=173 q=-0.0 size=N/A time=00:02:59.09 bitrate=N/A speed=7.24x    frame= 4395 fps=174 q=-0.0 size=N/A time=00:03:03.30 bitrate=N/A speed=7.26x    frame= 4495 fps=174 q=-0.0 size=N/A time=00:03:07.47 bitrate=N/A speed=7.27x    frame= 4591 fps=175 q=-0.0 size=N/A time=00:03:11.48 bitrate=N/A speed=7.28x    frame= 4678 fps=174 q=-0.0 size=N/A time=00:03:15.11 bitrate=N/A speed=7.27x    frame= 4779 fps=175 q=-0.0 size=N/A time=00:03:19.32 bitrate=N/A speed=7.29x    frame= 4870 fps=175 q=-0.0 size=N/A time=00:03:23.11 bitrate=N/A speed=7.29x    frame= 4963 fps=175 q=-0.0 size=N/A time=00:03:26.99 bitrate=N/A speed= 7.3x    frame= 5065 fps=175 q=-0.0 size=N/A time=00:03:31.25 bitrate=N/A speed=7.32x    frame= 5159 fps=176 q=-0.0 size=N/A time=00:03:35.17 bitrate=N/A speed=7.32x    frame= 5255 fps=176 q=-0.0 size=N/A time=00:03:39.17 bitrate=N/A speed=7.33x    frame= 5344 fps=176 q=-0.0 size=N/A time=00:03:42.88 bitrate=N/A speed=7.33x    frame= 5433 fps=176 q=-0.0 size=N/A time=00:03:46.60 bitrate=N/A speed=7.33x    frame= 5511 fps=175 q=-0.0 size=N/A time=00:03:49.85 bitrate=N/A speed=7.31x    frame= 5590 fps=175 q=-0.0 size=N/A time=00:03:53.14 bitrate=N/A speed=7.29x    frame= 5678 fps=175 q=-0.0 size=N/A time=00:03:56.81 bitrate=N/A speed=7.29x    frame= 5766 fps=175 q=-0.0 size=N/A time=00:04:00.49 bitrate=N/A speed=7.29x    frame= 5851 fps=175 q=-0.0 size=N/A time=00:04:04.03 bitrate=N/A speed=7.28x    frame= 5938 fps=174 q=-0.0 size=N/A time=00:04:07.66 bitrate=N/A speed=7.28x    frame= 6016 fps=174 q=-0.0 size=N/A time=00:04:10.91 bitrate=N/A speed=7.26x    frame= 6111 fps=174 q=-0.0 size=N/A time=00:04:14.87 bitrate=N/A speed=7.27x    frame= 6205 fps=174 q=-0.0 size=N/A time=00:04:18.80 bitrate=N/A speed=7.27x    frame= 6298 fps=174 q=-0.0 size=N/A time=00:04:22.67 bitrate=N/A speed=7.28x    frame= 6384 fps=174 q=-0.0 size=N/A time=00:04:26.26 bitrate=N/A speed=7.27x    frame= 6475 fps=174 q=-0.0 size=N/A time=00:04:30.06 bitrate=N/A speed=7.27x    frame= 6559 fps=174 q=-0.0 size=N/A time=00:04:33.56 bitrate=N/A speed=7.27x    frame= 6660 fps=175 q=-0.0 size=N/A time=00:04:37.77 bitrate=N/A speed=7.28x    frame= 6751 fps=175 q=-0.0 size=N/A time=00:04:41.57 bitrate=N/A speed=7.28x    frame= 6838 fps=174 q=-0.0 size=N/A time=00:04:45.20 bitrate=N/A speed=7.28x    frame= 6935 fps=175 q=-0.0 size=N/A time=00:04:49.24 bitrate=N/A speed=7.29x    frame= 7023 fps=175 q=-0.0 size=N/A time=00:04:52.91 bitrate=N/A speed=7.28x    frame= 7110 fps=175 q=-0.0 size=N/A time=00:04:56.54 bitrate=N/A speed=7.28x    frame= 7196 fps=174 q=-0.0 size=N/A time=00:05:00.13 bitrate=N/A speed=7.28x    frame= 7280 fps=174 q=-0.0 size=N/A time=00:05:03.63 bitrate=N/A speed=7.27x    frame= 7364 fps=174 q=-0.0 size=N/A time=00:05:07.14 bitrate=N/A speed=7.27x    frame= 7459 fps=174 q=-0.0 size=N/A time=00:05:11.10 bitrate=N/A speed=7.27x    frame= 7547 fps=174 q=-0.0 size=N/A time=00:05:14.77 bitrate=N/A speed=7.27x    frame= 7641 fps=174 q=-0.0 size=N/A time=00:05:18.69 bitrate=N/A speed=7.27x    frame= 7729 fps=174 q=-0.0 size=N/A time=00:05:22.36 bitrate=N/A speed=7.27x    frame= 7827 fps=174 q=-0.0 size=N/A time=00:05:26.45 bitrate=N/A speed=7.28x    frame= 7922 fps=175 q=-0.0 size=N/A time=00:05:30.41 bitrate=N/A speed=7.28x    frame= 8022 fps=175 q=-0.0 size=N/A time=00:05:34.58 bitrate=N/A speed=7.29x    frame= 8118 fps=175 q=-0.0 size=N/A time=00:05:38.58 bitrate=N/A speed= 7.3x    frame= 8213 fps=175 q=-0.0 size=N/A time=00:05:42.55 bitrate=N/A speed= 7.3x    frame= 8310 fps=175 q=-0.0 size=N/A time=00:05:46.59 bitrate=N/A speed=7.31x    frame= 8408 fps=175 q=-0.0 size=N/A time=00:05:50.68 bitrate=N/A speed=7.31x    frame= 8498 fps=175 q=-0.0 size=N/A time=00:05:54.43 bitrate=N/A speed=7.31x    frame= 8602 fps=176 q=-0.0 size=N/A time=00:05:58.77 bitrate=N/A speed=7.32x    frame= 8697 fps=176 q=-0.0 size=N/A time=00:06:02.73 bitrate=N/A speed=7.33x    frame= 8790 fps=176 q=-0.0 size=N/A time=00:06:06.61 bitrate=N/A speed=7.33x    frame= 8883 fps=176 q=-0.0 size=N/A time=00:06:10.49 bitrate=N/A speed=7.33x    frame= 8978 fps=176 q=-0.0 size=N/A time=00:06:14.45 bitrate=N/A speed=7.34x    frame= 9070 fps=176 q=-0.0 size=N/A time=00:06:18.29 bitrate=N/A speed=7.34x    frame= 9179 fps=176 q=-0.0 size=N/A time=00:06:22.84 bitrate=N/A speed=7.35x    frame= 9272 fps=176 q=-0.0 size=N/A time=00:06:26.71 bitrate=N/A speed=7.35x    frame= 9368 fps=176 q=-0.0 size=N/A time=00:06:30.72 bitrate=N/A speed=7.35x    frame= 9459 fps=176 q=-0.0 size=N/A time=00:06:34.51 bitrate=N/A speed=7.35x    frame= 9555 fps=176 q=-0.0 size=N/A time=00:06:38.52 bitrate=N/A speed=7.36x    frame= 9645 fps=176 q=-0.0 size=N/A time=00:06:42.27 bitrate=N/A speed=7.36x    frame= 9746 fps=177 q=-0.0 size=N/A time=00:06:46.48 bitrate=N/A speed=7.36x    frame= 9842 fps=177 q=-0.0 size=N/A time=00:06:50.49 bitrate=N/A speed=7.37x    frame= 9938 fps=177 q=-0.0 size=N/A time=00:06:54.49 bitrate=N/A speed=7.37x    frame=10035 fps=177 q=-0.0 size=N/A time=00:06:58.54 bitrate=N/A speed=7.38x    frame=10133 fps=177 q=-0.0 size=N/A time=00:07:02.63 bitrate=N/A speed=7.38x    frame=10222 fps=177 q=-0.0 size=N/A time=00:07:06.34 bitrate=N/A speed=7.38x    frame=10322 fps=177 q=-0.0 size=N/A time=00:07:10.51 bitrate=N/A speed=7.39x    frame=10423 fps=177 q=-0.0 size=N/A time=00:07:14.72 bitrate=N/A speed=7.39x    frame=10521 fps=177 q=-0.0 size=N/A time=00:07:18.81 bitrate=N/A speed= 7.4x    frame=10613 fps=177 q=-0.0 size=N/A time=00:07:22.65 bitrate=N/A speed= 7.4x    frame=10719 fps=178 q=-0.0 size=N/A time=00:07:27.07 bitrate=N/A speed=7.41x    frame=10818 fps=178 q=-0.0 size=N/A time=00:07:31.20 bitrate=N/A speed=7.41x    frame=10905 fps=178 q=-0.0 size=N/A time=00:07:34.82 bitrate=N/A speed=7.41x    frame=11008 fps=178 q=-0.0 size=N/A time=00:07:39.12 bitrate=N/A speed=7.42x    frame=11106 fps=178 q=-0.0 size=N/A time=00:07:43.21 bitrate=N/A speed=7.42x    frame=11207 fps=178 q=-0.0 size=N/A time=00:07:47.42 bitrate=N/A speed=7.43x    frame=11307 fps=178 q=-0.0 size=N/A time=00:07:51.59 bitrate=N/A speed=7.43x    frame=11405 fps=178 q=-0.0 size=N/A time=00:07:55.68 bitrate=N/A speed=7.44x    frame=11491 fps=178 q=-0.0 size=N/A time=00:07:59.27 bitrate=N/A speed=7.43x    frame=11589 fps=178 q=-0.0 size=N/A time=00:08:03.35 bitrate=N/A speed=7.44x    frame=11700 fps=179 q=-0.0 size=N/A time=00:08:07.98 bitrate=N/A speed=7.45x    frame=11792 fps=179 q=-0.0 size=N/A time=00:08:11.82 bitrate=N/A speed=7.45x    frame=11889 fps=179 q=-0.0 size=N/A time=00:08:15.87 bitrate=N/A speed=7.45x    frame=11987 fps=179 q=-0.0 size=N/A time=00:08:19.95 bitrate=N/A speed=7.46x    frame=12066 fps=179 q=-0.0 size=N/A time=00:08:23.25 bitrate=N/A speed=7.45x    frame=12169 fps=179 q=-0.0 size=N/A time=00:08:27.54 bitrate=N/A speed=7.46x    frame=12254 fps=179 q=-0.0 size=N/A time=00:08:31.09 bitrate=N/A speed=7.45x    frame=12353 fps=179 q=-0.0 size=N/A time=00:08:35.22 bitrate=N/A speed=7.46x    frame=12430 fps=179 q=-0.0 size=N/A time=00:08:38.43 bitrate=N/A speed=7.45x    frame=12531 fps=179 q=-0.0 size=N/A time=00:08:42.64 bitrate=N/A speed=7.45x    frame=12623 fps=179 q=-0.0 size=N/A time=00:08:46.48 bitrate=N/A speed=7.45x    frame=12720 fps=179 q=-0.0 size=N/A time=00:08:50.53 bitrate=N/A speed=7.45x    frame=12801 fps=179 q=-0.0 size=N/A time=00:08:53.90 bitrate=N/A speed=7.45x    frame=12884 fps=178 q=-0.0 size=N/A time=00:08:57.37 bitrate=N/A speed=7.44x    frame=12969 fps=178 q=-0.0 size=N/A time=00:09:00.91 bitrate=N/A speed=7.44x    frame=13054 fps=178 q=-0.0 size=N/A time=00:09:04.46 bitrate=N/A speed=7.43x    frame=13141 fps=178 q=-0.0 size=N/A time=00:09:08.08 bitrate=N/A speed=7.43x    frame=13227 fps=178 q=-0.0 size=N/A time=00:09:11.67 bitrate=N/A speed=7.43x    frame=13315 fps=178 q=-0.0 size=N/A time=00:09:15.34 bitrate=N/A speed=7.43x    frame=13402 fps=178 q=-0.0 size=N/A time=00:09:18.97 bitrate=N/A speed=7.42x    frame=13496 fps=178 q=-0.0 size=N/A time=00:09:22.89 bitrate=N/A speed=7.43x    frame=13592 fps=178 q=-0.0 size=N/A time=00:09:26.89 bitrate=N/A speed=7.43x    frame=13684 fps=178 q=-0.0 size=N/A time=00:09:30.73 bitrate=N/A speed=7.43x    frame=13781 fps=178 q=-0.0 size=N/A time=00:09:34.78 bitrate=N/A speed=7.43x    frame=13867 fps=178 q=-0.0 size=N/A time=00:09:38.36 bitrate=N/A speed=7.43x    frame=13955 fps=178 q=-0.0 size=N/A time=00:09:42.03 bitrate=N/A speed=7.42x    frame=14061 fps=178 q=-0.0 size=N/A time=00:09:46.46 bitrate=N/A speed=7.43x    frame=14153 fps=178 q=-0.0 size=N/A time=00:09:50.29 bitrate=N/A speed=7.43x    frame=14252 fps=178 q=-0.0 size=N/A time=00:09:54.42 bitrate=N/A speed=7.43x    frame=14347 fps=178 q=-0.0 size=N/A time=00:09:58.38 bitrate=N/A speed=7.44x    frame=14438 fps=178 q=-0.0 size=N/A time=00:10:02.18 bitrate=N/A speed=7.44x    frame=14537 fps=178 q=-0.0 size=N/A time=00:10:06.31 bitrate=N/A speed=7.44x    frame=14633 fps=178 q=-0.0 size=N/A time=00:10:10.31 bitrate=N/A speed=7.44x    frame=14727 fps=178 q=-0.0 size=N/A time=00:10:14.23 bitrate=N/A speed=7.44x    frame=14818 fps=178 q=-0.0 size=N/A time=00:10:18.03 bitrate=N/A speed=7.44x    frame=14905 fps=178 q=-0.0 size=N/A time=00:10:21.66 bitrate=N/A speed=7.44x    frame=15003 fps=178 q=-0.0 size=N/A time=00:10:25.75 bitrate=N/A speed=7.44x    frame=15093 fps=178 q=-0.0 size=N/A time=00:10:29.50 bitrate=N/A speed=7.44x    frame=15193 fps=179 q=-0.0 size=N/A time=00:10:33.67 bitrate=N/A speed=7.45x    frame=15287 fps=179 q=-0.0 size=N/A time=00:10:37.59 bitrate=N/A speed=7.45x    frame=15371 fps=178 q=-0.0 size=N/A time=00:10:41.09 bitrate=N/A speed=7.44x    frame=15469 fps=179 q=-0.0 size=N/A time=00:10:45.18 bitrate=N/A speed=7.45x    frame=15554 fps=178 q=-0.0 size=N/A time=00:10:48.73 bitrate=N/A speed=7.44x    frame=15655 fps=179 q=-0.0 size=N/A time=00:10:52.94 bitrate=N/A speed=7.45x    frame=15752 fps=179 q=-0.0 size=N/A time=00:10:56.98 bitrate=N/A speed=7.45x    frame=15843 fps=179 q=-0.0 size=N/A time=00:11:00.78 bitrate=N/A speed=7.45x    frame=15949 fps=179 q=-0.0 size=N/A time=00:11:05.20 bitrate=N/A speed=7.45x    frame=16045 fps=179 q=-0.0 size=N/A time=00:11:09.21 bitrate=N/A speed=7.46x    frame=16139 fps=179 q=-0.0 size=N/A time=00:11:13.13 bitrate=N/A speed=7.46x    frame=16241 fps=179 q=-0.0 size=N/A time=00:11:17.38 bitrate=N/A speed=7.46x    frame=16331 fps=179 q=-0.0 size=N/A time=00:11:21.13 bitrate=N/A speed=7.46x    frame=16435 fps=179 q=-0.0 size=N/A time=00:11:25.47 bitrate=N/A speed=7.47x    frame=16530 fps=179 q=-0.0 size=N/A time=00:11:29.43 bitrate=N/A speed=7.47x    frame=16629 fps=179 q=-0.0 size=N/A time=00:11:33.56 bitrate=N/A speed=7.47x    frame=16723 fps=179 q=-0.0 size=N/A time=00:11:37.48 bitrate=N/A speed=7.47x    frame=16823 fps=179 q=-0.0 size=N/A time=00:11:41.65 bitrate=N/A speed=7.47x    frame=16919 fps=179 q=-0.0 size=N/A time=00:11:45.66 bitrate=N/A speed=7.48x    frame=17002 fps=179 q=-0.0 size=N/A time=00:11:49.12 bitrate=N/A speed=7.47x    frame=17099 fps=179 q=-0.0 size=N/A time=00:11:53.17 bitrate=N/A speed=7.47x    frame=17198 fps=179 q=-0.0 size=N/A time=00:11:57.29 bitrate=N/A speed=7.48x    frame=17285 fps=179 q=-0.0 size=N/A time=00:12:00.92 bitrate=N/A speed=7.47x    frame=17396 fps=179 q=-0.0 size=N/A time=00:12:05.55 bitrate=N/A speed=7.48x    frame=17490 fps=179 q=-0.0 size=N/A time=00:12:09.47 bitrate=N/A speed=7.48x    frame=17588 fps=179 q=-0.0 size=N/A time=00:12:13.56 bitrate=N/A speed=7.49x    frame=17683 fps=179 q=-0.0 size=N/A time=00:12:17.52 bitrate=N/A speed=7.49x    frame=17776 fps=180 q=-0.0 size=N/A time=00:12:21.40 bitrate=N/A speed=7.49x    frame=17877 fps=180 q=-0.0 size=N/A time=00:12:25.61 bitrate=N/A speed=7.49x    frame=17981 fps=180 q=-0.0 size=N/A time=00:12:29.95 bitrate=N/A speed=7.49x    frame=18077 fps=180 q=-0.0 size=N/A time=00:12:33.96 bitrate=N/A speed= 7.5x    frame=18160 fps=180 q=-0.0 size=N/A time=00:12:37.42 bitrate=N/A speed=7.49x    frame=18263 fps=180 q=-0.0 size=N/A time=00:12:41.71 bitrate=N/A speed= 7.5x    frame=18362 fps=180 q=-0.0 size=N/A time=00:12:45.84 bitrate=N/A speed= 7.5x    frame=18467 fps=180 q=-0.0 size=N/A time=00:12:50.22 bitrate=N/A speed= 7.5x    frame=18560 fps=180 q=-0.0 size=N/A time=00:12:54.10 bitrate=N/A speed= 7.5x    frame=18661 fps=180 q=-0.0 size=N/A time=00:12:58.31 bitrate=N/A speed=7.51x    frame=18765 fps=180 q=-0.0 size=N/A time=00:13:02.65 bitrate=N/A speed=7.51x    frame=18848 fps=180 q=-0.0 size=N/A time=00:13:06.11 bitrate=N/A speed=7.51x    frame=18958 fps=180 q=-0.0 size=N/A time=00:13:10.70 bitrate=N/A speed=7.51x    frame=19056 fps=180 q=-0.0 size=N/A time=00:13:14.79 bitrate=N/A speed=7.52x    frame=19144 fps=180 q=-0.0 size=N/A time=00:13:18.46 bitrate=N/A speed=7.51x    frame=19242 fps=180 q=-0.0 size=N/A time=00:13:22.55 bitrate=N/A speed=7.52x    frame=19344 fps=180 q=-0.0 size=N/A time=00:13:26.80 bitrate=N/A speed=7.52x    frame=19441 fps=180 q=-0.0 size=N/A time=00:13:30.85 bitrate=N/A speed=7.52x    frame=19521 fps=180 q=-0.0 size=N/A time=00:13:34.18 bitrate=N/A speed=7.52x    frame=19604 fps=180 q=-0.0 size=N/A time=00:13:37.65 bitrate=N/A speed=7.51x    frame=19708 fps=180 q=-0.0 size=N/A time=00:13:41.98 bitrate=N/A speed=7.52x    frame=19801 fps=180 q=-0.0 size=N/A time=00:13:45.86 bitrate=N/A speed=7.52x    frame=19900 fps=180 q=-0.0 size=N/A time=00:13:49.99 bitrate=N/A speed=7.52x    frame=19996 fps=180 q=-0.0 size=N/A time=00:13:53.99 bitrate=N/A speed=7.52x    frame=20083 fps=180 q=-0.0 size=N/A time=00:13:57.62 bitrate=N/A speed=7.52x    frame=20185 fps=180 q=-0.0 size=N/A time=00:14:01.88 bitrate=N/A speed=7.52x    frame=20281 fps=180 q=-0.0 size=N/A time=00:14:05.88 bitrate=N/A speed=7.52x    frame=20388 fps=180 q=-0.0 size=N/A time=00:14:10.34 bitrate=N/A speed=7.53x    frame=20485 fps=181 q=-0.0 size=N/A time=00:14:14.39 bitrate=N/A speed=7.53x    frame=20582 fps=181 q=-0.0 size=N/A time=00:14:18.44 bitrate=N/A speed=7.53x    frame=20681 fps=181 q=-0.0 size=N/A time=00:14:22.57 bitrate=N/A speed=7.53x    frame=20768 fps=181 q=-0.0 size=N/A time=00:14:26.19 bitrate=N/A speed=7.53x    frame=20864 fps=181 q=-0.0 size=N/A time=00:14:30.20 bitrate=N/A speed=7.53x    frame=20937 fps=180 q=-0.0 size=N/A time=00:14:33.24 bitrate=N/A speed=7.53x    frame=21019 fps=180 q=-0.0 size=N/A time=00:14:36.66 bitrate=N/A speed=7.52x    frame=21109 fps=180 q=-0.0 size=N/A time=00:14:40.42 bitrate=N/A speed=7.52x    frame=21185 fps=180 q=-0.0 size=N/A time=00:14:43.59 bitrate=N/A speed=7.51x    frame=21287 fps=180 q=-0.0 size=N/A time=00:14:47.84 bitrate=N/A speed=7.52x    frame=21377 fps=180 q=-0.0 size=N/A time=00:14:51.59 bitrate=N/A speed=7.52x    frame=21473 fps=180 q=-0.0 size=N/A time=00:14:55.60 bitrate=N/A speed=7.52x    frame=21558 fps=180 q=-0.0 size=N/A time=00:14:59.14 bitrate=N/A speed=7.51x    frame=21663 fps=180 q=-0.0 size=N/A time=00:15:03.52 bitrate=N/A speed=7.52x    frame=21754 fps=180 q=-0.0 size=N/A time=00:15:07.32 bitrate=N/A speed=7.52x    frame=21844 fps=180 q=-0.0 size=N/A time=00:15:11.07 bitrate=N/A speed=7.52x    frame=21956 fps=180 q=-0.0 size=N/A time=00:15:15.74 bitrate=N/A speed=7.52x    frame=22047 fps=180 q=-0.0 size=N/A time=00:15:19.54 bitrate=N/A speed=7.52x    frame=22139 fps=180 q=-0.0 size=N/A time=00:15:23.38 bitrate=N/A speed=7.52x    frame=22229 fps=180 q=-0.0 size=N/A time=00:15:27.13 bitrate=N/A speed=7.52x    frame=22319 fps=180 q=-0.0 size=N/A time=00:15:30.88 bitrate=N/A speed=7.52x    frame=22418 fps=180 q=-0.0 size=N/A time=00:15:35.01 bitrate=N/A speed=7.52x    frame=22511 fps=180 q=-0.0 size=N/A time=00:15:38.89 bitrate=N/A speed=7.52x    frame=22603 fps=180 q=-0.0 size=N/A time=00:15:42.73 bitrate=N/A speed=7.52x    frame=22691 fps=180 q=-0.0 size=N/A time=00:15:46.40 bitrate=N/A speed=7.52x    frame=22783 fps=180 q=-0.0 size=N/A time=00:15:50.24 bitrate=N/A speed=7.52x    frame=22879 fps=180 q=-0.0 size=N/A time=00:15:54.24 bitrate=N/A speed=7.52x    frame=22972 fps=180 q=-0.0 size=N/A time=00:15:58.12 bitrate=N/A speed=7.52x    frame=23065 fps=180 q=-0.0 size=N/A time=00:16:02.00 bitrate=N/A speed=7.52x    frame=23155 fps=180 q=-0.0 size=N/A time=00:16:05.75 bitrate=N/A speed=7.52x    frame=23254 fps=180 q=-0.0 size=N/A time=00:16:09.88 bitrate=N/A speed=7.52x    frame=23344 fps=180 q=-0.0 size=N/A time=00:16:13.63 bitrate=N/A speed=7.52x    frame=23437 fps=180 q=-0.0 size=N/A time=00:16:17.51 bitrate=N/A speed=7.52x    frame=23523 fps=180 q=-0.0 size=N/A time=00:16:21.10 bitrate=N/A speed=7.52x    frame=23616 fps=180 q=-0.0 size=N/A time=00:16:24.98 bitrate=N/A speed=7.52x    frame=23697 fps=180 q=-0.0 size=N/A time=00:16:28.36 bitrate=N/A speed=7.51x    frame=23783 fps=180 q=-0.0 size=N/A time=00:16:31.94 bitrate=N/A speed=7.51x    frame=23880 fps=180 q=-0.0 size=N/A time=00:16:35.99 bitrate=N/A speed=7.51x    frame=23971 fps=180 q=-0.0 size=N/A time=00:16:39.79 bitrate=N/A speed=7.51x    frame=24065 fps=180 q=-0.0 size=N/A time=00:16:43.71 bitrate=N/A speed=7.51x    frame=24148 fps=180 q=-0.0 size=N/A time=00:16:47.17 bitrate=N/A speed=7.51x    frame=24245 fps=180 q=-0.0 size=N/A time=00:16:51.21 bitrate=N/A speed=7.51x    frame=24341 fps=180 q=-0.0 size=N/A time=00:16:55.22 bitrate=N/A speed=7.51x    frame=24436 fps=180 q=-0.0 size=N/A time=00:16:59.18 bitrate=N/A speed=7.51x    frame=24525 fps=180 q=-0.0 size=N/A time=00:17:02.89 bitrate=N/A speed=7.51x    frame=24603 fps=180 q=-0.0 size=N/A time=00:17:06.15 bitrate=N/A speed=7.51x    frame=24701 fps=180 q=-0.0 size=N/A time=00:17:10.23 bitrate=N/A speed=7.51x    frame=24787 fps=180 q=-0.0 size=N/A time=00:17:13.82 bitrate=N/A speed=7.51x    frame=24873 fps=180 q=-0.0 size=N/A time=00:17:17.41 bitrate=N/A speed= 7.5x    frame=24954 fps=180 q=-0.0 size=N/A time=00:17:20.78 bitrate=N/A speed= 7.5x    frame=25053 fps=180 q=-0.0 size=N/A time=00:17:24.91 bitrate=N/A speed= 7.5x    frame=25141 fps=180 q=-0.0 size=N/A time=00:17:28.58 bitrate=N/A speed= 7.5x    frame=25230 fps=180 q=-0.0 size=N/A time=00:17:32.30 bitrate=N/A speed= 7.5x    frame=25321 fps=180 q=-0.0 size=N/A time=00:17:36.09 bitrate=N/A speed= 7.5x    frame=25402 fps=180 q=-0.0 size=N/A time=00:17:39.47 bitrate=N/A speed= 7.5x    frame=25490 fps=180 q=-0.0 size=N/A time=00:17:43.14 bitrate=N/A speed=7.49x    frame=25577 fps=180 q=-0.0 size=N/A time=00:17:46.77 bitrate=N/A speed=7.49x    frame=25673 fps=180 q=-0.0 size=N/A time=00:17:50.77 bitrate=N/A speed=7.49x    frame=25758 fps=180 q=-0.0 size=N/A time=00:17:54.32 bitrate=N/A speed=7.49x    frame=25845 fps=180 q=-0.0 size=N/A time=00:17:57.95 bitrate=N/A speed=7.49x    frame=25940 fps=180 q=-0.0 size=N/A time=00:18:01.91 bitrate=N/A speed=7.49x    frame=26025 fps=180 q=-0.0 size=N/A time=00:18:05.45 bitrate=N/A speed=7.49x    frame=26110 fps=179 q=-0.0 size=N/A time=00:18:09.00 bitrate=N/A speed=7.49x    frame=26203 fps=179 q=-0.0 size=N/A time=00:18:12.88 bitrate=N/A speed=7.49x    frame=26289 fps=179 q=-0.0 size=N/A time=00:18:16.47 bitrate=N/A speed=7.48x    frame=26369 fps=179 q=-0.0 size=N/A time=00:18:19.80 bitrate=N/A speed=7.48x    frame=26461 fps=179 q=-0.0 size=N/A time=00:18:23.64 bitrate=N/A speed=7.48x    frame=26554 fps=179 q=-0.0 size=N/A time=00:18:27.52 bitrate=N/A speed=7.48x    frame=26643 fps=179 q=-0.0 size=N/A time=00:18:31.23 bitrate=N/A speed=7.48x    frame=26733 fps=179 q=-0.0 size=N/A time=00:18:34.98 bitrate=N/A speed=7.48x    frame=26822 fps=179 q=-0.0 size=N/A time=00:18:38.70 bitrate=N/A speed=7.48x    frame=26913 fps=179 q=-0.0 size=N/A time=00:18:42.49 bitrate=N/A speed=7.48x    frame=26999 fps=179 q=-0.0 size=N/A time=00:18:46.08 bitrate=N/A speed=7.48x    frame=27075 fps=179 q=-0.0 size=N/A time=00:18:49.25 bitrate=N/A speed=7.47x    frame=27174 fps=179 q=-0.0 size=N/A time=00:18:53.38 bitrate=N/A speed=7.47x    frame=27263 fps=179 q=-0.0 size=N/A time=00:18:57.09 bitrate=N/A speed=7.47x    frame=27353 fps=179 q=-0.0 size=N/A time=00:19:00.84 bitrate=N/A speed=7.47x    frame=27444 fps=179 q=-0.0 size=N/A time=00:19:04.64 bitrate=N/A speed=7.47x    frame=27531 fps=179 q=-0.0 size=N/A time=00:19:08.27 bitrate=N/A speed=7.47x    frame=27626 fps=179 q=-0.0 size=N/A time=00:19:12.23 bitrate=N/A speed=7.47x    frame=27719 fps=179 q=-0.0 size=N/A time=00:19:16.11 bitrate=N/A speed=7.47x    frame=27803 fps=179 q=-0.0 size=N/A time=00:19:19.61 bitrate=N/A speed=7.47x    frame=27904 fps=179 q=-0.0 size=N/A time=00:19:23.82 bitrate=N/A speed=7.47x    frame=27990 fps=179 q=-0.0 size=N/A time=00:19:27.41 bitrate=N/A speed=7.47x    frame=28081 fps=179 q=-0.0 size=N/A time=00:19:31.21 bitrate=N/A speed=7.47x    frame=28166 fps=179 q=-0.0 size=N/A time=00:19:34.75 bitrate=N/A speed=7.47x    frame=28255 fps=179 q=-0.0 size=N/A time=00:19:38.46 bitrate=N/A speed=7.47x    frame=28355 fps=179 q=-0.0 size=N/A time=00:19:42.63 bitrate=N/A speed=7.47x    frame=28445 fps=179 q=-0.0 size=N/A time=00:19:46.39 bitrate=N/A speed=7.47x    frame=28528 fps=179 q=-0.0 size=N/A time=00:19:49.85 bitrate=N/A speed=7.46x    frame=28627 fps=179 q=-0.0 size=N/A time=00:19:53.98 bitrate=N/A speed=7.47x    frame=28726 fps=179 q=-0.0 size=N/A time=00:19:58.11 bitrate=N/A speed=7.47x    frame=28819 fps=179 q=-0.0 size=N/A time=00:20:01.99 bitrate=N/A speed=7.47x    frame=28910 fps=179 q=-0.0 size=N/A time=00:20:05.78 bitrate=N/A speed=7.47x    frame=29011 fps=179 q=-0.0 size=N/A time=00:20:10.00 bitrate=N/A speed=7.47x    frame=29111 fps=179 q=-0.0 size=N/A time=00:20:14.17 bitrate=N/A speed=7.47x    frame=29210 fps=179 q=-0.0 size=N/A time=00:20:18.30 bitrate=N/A speed=7.47x    frame=29302 fps=179 q=-0.0 size=N/A time=00:20:22.13 bitrate=N/A speed=7.47x    frame=29396 fps=179 q=-0.0 size=N/A time=00:20:26.05 bitrate=N/A speed=7.47x    frame=29484 fps=179 q=-0.0 size=N/A time=00:20:29.72 bitrate=N/A speed=7.47x    frame=29577 fps=179 q=-0.0 size=N/A time=00:20:33.60 bitrate=N/A speed=7.47x    frame=29664 fps=179 q=-0.0 size=N/A time=00:20:37.23 bitrate=N/A speed=7.47x    frame=29748 fps=179 q=-0.0 size=N/A time=00:20:40.73 bitrate=N/A speed=7.47x    frame=29839 fps=179 q=-0.0 size=N/A time=00:20:44.53 bitrate=N/A speed=7.47x    frame=29925 fps=179 q=-0.0 size=N/A time=00:20:48.12 bitrate=N/A speed=7.47x    frame=30011 fps=179 q=-0.0 size=N/A time=00:20:51.70 bitrate=N/A speed=7.47x    frame=30096 fps=179 q=-0.0 size=N/A time=00:20:55.25 bitrate=N/A speed=7.46x    frame=30189 fps=179 q=-0.0 size=N/A time=00:20:59.13 bitrate=N/A speed=7.46x    frame=30274 fps=179 q=-0.0 size=N/A time=00:21:02.67 bitrate=N/A speed=7.46x    frame=30375 fps=179 q=-0.0 size=N/A time=00:21:06.89 bitrate=N/A speed=7.46x    frame=30470 fps=179 q=-0.0 size=N/A time=00:21:10.85 bitrate=N/A speed=7.46x    frame=30564 fps=179 q=-0.0 size=N/A time=00:21:14.77 bitrate=N/A speed=7.47x    frame=30654 fps=179 q=-0.0 size=N/A time=00:21:18.52 bitrate=N/A speed=7.46x    frame=30744 fps=179 q=-0.0 size=N/A time=00:21:22.28 bitrate=N/A speed=7.46x    frame=30823 fps=179 q=-0.0 size=N/A time=00:21:25.57 bitrate=N/A speed=7.46x    frame=30922 fps=179 q=-0.0 size=N/A time=00:21:29.70 bitrate=N/A speed=7.46x    frame=31016 fps=179 q=-0.0 size=N/A time=00:21:33.62 bitrate=N/A speed=7.46x    frame=31102 fps=179 q=-0.0 size=N/A time=00:21:37.21 bitrate=N/A speed=7.46x    frame=31196 fps=179 q=-0.0 size=N/A time=00:21:41.13 bitrate=N/A speed=7.46x    frame=31290 fps=179 q=-0.0 size=N/A time=00:21:45.05 bitrate=N/A speed=7.46x    frame=31380 fps=179 q=-0.0 size=N/A time=00:21:48.80 bitrate=N/A speed=7.46x    frame=31471 fps=179 q=-0.0 size=N/A time=00:21:52.60 bitrate=N/A speed=7.46x    frame=31559 fps=179 q=-0.0 size=N/A time=00:21:56.27 bitrate=N/A speed=7.46x    frame=31657 fps=179 q=-0.0 size=N/A time=00:22:00.36 bitrate=N/A speed=7.46x    frame=31753 fps=179 q=-0.0 size=N/A time=00:22:04.36 bitrate=N/A speed=7.46x    frame=31845 fps=179 q=-0.0 size=N/A time=00:22:08.20 bitrate=N/A speed=7.46x    frame=31929 fps=179 q=-0.0 size=N/A time=00:22:11.70 bitrate=N/A speed=7.46x    frame=32023 fps=179 q=-0.0 size=N/A time=00:22:15.62 bitrate=N/A speed=7.46x    frame=32116 fps=179 q=-0.0 size=N/A time=00:22:19.50 bitrate=N/A speed=7.46x    frame=32199 fps=179 q=-0.0 size=N/A time=00:22:22.96 bitrate=N/A speed=7.46x    frame=32301 fps=179 q=-0.0 size=N/A time=00:22:27.22 bitrate=N/A speed=7.46x    frame=32394 fps=179 q=-0.0 size=N/A time=00:22:31.09 bitrate=N/A speed=7.46x    frame=32488 fps=179 q=-0.0 size=N/A time=00:22:35.02 bitrate=N/A speed=7.46x    frame=32577 fps=179 q=-0.0 size=N/A time=00:22:38.73 bitrate=N/A speed=7.46x    frame=32661 fps=179 q=-0.0 size=N/A time=00:22:42.23 bitrate=N/A speed=7.46x    frame=32759 fps=179 q=-0.0 size=N/A time=00:22:46.32 bitrate=N/A speed=7.46x    frame=32841 fps=179 q=-0.0 size=N/A time=00:22:49.74 bitrate=N/A speed=7.46x    frame=32931 fps=179 q=-0.0 size=N/A time=00:22:53.49 bitrate=N/A speed=7.46x    frame=33019 fps=179 q=-0.0 size=N/A time=00:22:57.16 bitrate=N/A speed=7.46x    frame=33110 fps=179 q=-0.0 size=N/A time=00:23:00.96 bitrate=N/A speed=7.46x    frame=33202 fps=179 q=-0.0 size=N/A time=00:23:04.80 bitrate=N/A speed=7.46x    frame=33291 fps=179 q=-0.0 size=N/A time=00:23:08.51 bitrate=N/A speed=7.46x    frame=33378 fps=179 q=-0.0 size=N/A time=00:23:12.14 bitrate=N/A speed=7.46x    frame=33468 fps=179 q=-0.0 size=N/A time=00:23:15.89 bitrate=N/A speed=7.45x    frame=33546 fps=179 q=-0.0 size=N/A time=00:23:19.14 bitrate=N/A speed=7.45x    frame=33637 fps=179 q=-0.0 size=N/A time=00:23:22.94 bitrate=N/A speed=7.45x    frame=33725 fps=179 q=-0.0 size=N/A time=00:23:26.61 bitrate=N/A speed=7.45x    frame=33814 fps=179 q=-0.0 size=N/A time=00:23:30.32 bitrate=N/A speed=7.45x    frame=33902 fps=179 q=-0.0 size=N/A time=00:23:33.99 bitrate=N/A speed=7.45x    frame=33998 fps=179 q=-0.0 size=N/A time=00:23:37.99 bitrate=N/A speed=7.45x    [Parsed_ssim_10 @ 000001fc9932f380] SSIM Y:0.989887 (19.951394) U:0.991458 (20.684233) V:0.992507 (21.253327) All:0.990586 (20.262125)
[out#0/null @ 000001fc998ea5c0] video:14630KiB audio:266472KiB subtitle:0KiB other streams:0KiB global headers:0KiB muxing overhead: unknown
frame=34049 fps=179 q=-0.0 Lsize=N/A time=00:23:40.12 bitrate=N/A speed=7.45x    
